<?xml version="1.0" encoding="UTF-8"?><svg id="Calque_1" xmlns="http://www.w3.org/2000/svg" viewBox="0 0 1527.42 392.19"><defs><style>.cls-1{stroke-width:0px;}</style></defs><g id="Calque_2-2"><path class="cls-1" d="M69.87,379.95c28.05,0,47.94-16.32,47.94-42.84,0-17.34-6.63-28.56-21.42-38.25s-45.9-19.89-62.73-30.09c-17.34-9.69-28.56-26.52-28.56-51,0-35.7,29.07-62.73,70.89-62.73,15.3,0,31.62,3.06,44.88,7.65l14.28,44.37h-3.06c-20.91-30.6-37.23-40.8-61.2-40.8-25.5,0-43.86,17.34-43.86,38.76,0,16.32,9.18,28.56,25.5,38.25,16.83,9.18,44.88,17.85,61.71,29.58,16.83,11.22,25.5,27.03,25.5,49.98,0,40.8-30.6,69.36-75.48,69.36-18.36,0-37.23-4.08-50.49-8.16L0,335.07h3.06c21.42,31.62,38.25,44.88,66.81,44.88Z"/><path class="cls-1" d="M407.99,370.26v2.55l-56.1,19.38-6.12-30.09c-21.93,15.81-49.98,30.09-82.11,30.09-50.49,0-67.32-32.64-67.32-69.36v-116.79c0-27.54-.51-32.64-27.54-41.82v-3.06h57.63v156.06c0,29.58,10.2,57.12,54.06,57.12,24.99,0,44.88-9.18,64.26-20.4v-147.9c0-27.54-.51-32.64-27.54-41.82v-3.06h57.63v183.6c0,20.4,5.61,23.97,33.15,25.5h0Z"/><path class="cls-1" d="M660.44,267.75c0,71.91-53.04,124.44-129.54,124.44-29.07,0-59.16-6.63-75.99-15.81V58.65c0-26.52-1.02-28.56-27.54-35.7v-2.55L485,0v183.6c18.36-13.26,42.33-27.54,75.48-27.54,60.18,0,99.96,48.96,99.96,111.69h0ZM629.33,278.46c0-55.59-30.6-104.55-87.21-104.55-23.46,0-40.8,8.16-57.12,18.87v173.4c13.77,8.67,31.62,13.77,52.53,13.77,58.14,0,91.8-41.82,91.8-101.49Z"/><path class="cls-1" d="M774.16,384.03v3.06h-78.03v-3.06c22.95-7.65,23.97-11.73,23.97-40.8V58.65c0-26.52-.51-28.56-27.03-35.7v-2.55L750.19,0v343.23c0,29.07,1.02,33.15,23.97,40.8h0Z"/><path class="cls-1" d="M836.89,343.23v-155.56c0-28.05-1.02-30.09-25.5-36.72v-2.55l55.59-19.89v214.72c0,29.07.51,33.15,22.95,40.8v3.06h-77.52v-3.06c23.46-7.65,24.48-11.73,24.48-40.8ZM828.73,42.83c0-12.24,8.67-20.91,21.42-20.91s20.91,8.67,20.91,20.91-8.67,20.91-20.91,20.91-21.42-8.67-21.42-20.91Z"/><path class="cls-1" d="M1296.39,384.03v3.06h-77.52v-3.06c22.95-7.65,23.97-11.73,23.97-40.8v-115.77c0-31.11-12.75-54.06-52.02-54.06-24.48,0-44.37,11.22-62.73,22.95v146.88c0,29.07,1.02,33.15,23.97,40.8v3.06h-78.03v-3.06c23.46-7.65,23.97-11.73,23.97-40.8v-121.89c0-24.99-12.75-47.94-53.55-47.94-23.46,0-42.33,8.16-60.69,19.38v150.45c0,29.07.51,33.15,22.95,40.8v3.06h-77.52v-3.06c23.46-7.65,24.48-11.73,24.48-40.8v-131.58c0-28.05-1.02-30.09-25.5-36.72v-2.55l55.59-19.89v31.11c16.83-11.22,45.39-28.56,80.07-28.56,30.6,0,48.96,13.77,61.71,33.15,18.87-13.77,47.43-33.15,83.64-33.15,47.94,0,63.75,31.62,63.75,66.81v121.38c0,29.07,1.02,33.15,23.46,40.8h0Z"/><path class="cls-1" d="M1332.6,275.91c0-69.87,46.92-120.87,109.14-120.87,47.94,0,78.54,30.09,85.68,75.48h-162.69c-2.04,9.69-3.06,19.89-3.06,31.62,0,66.3,38.25,110.16,95.88,110.16,29.58,0,52.02-10.71,66.81-24.99l2.55,2.04c-19.38,26.52-49.98,42.84-87.21,42.84-63.24,0-107.1-48.45-107.1-116.28h0ZM1495.8,219.3c-7.14-32.64-27.03-52.02-59.16-52.02s-57.12,17.34-68.34,52.02h127.5Z"/></g></svg>